<mxfile host="Electron" agent="Mozilla/5.0 (Windows NT 10.0; Win64; x64) AppleWebKit/537.36 (KHTML, like Gecko) draw.io/24.7.17 Chrome/128.0.6613.36 Electron/32.0.1 Safari/537.36" version="24.7.17">
  <diagram name="Page-1" id="yTDy-J2uu8edXYRMpZ-I">
    <mxGraphModel dx="1434" dy="956" grid="1" gridSize="10" guides="1" tooltips="1" connect="1" arrows="1" fold="1" page="1" pageScale="1" pageWidth="850" pageHeight="1100" math="0" shadow="0">
      <root>
        <mxCell id="0" />
        <mxCell id="1" parent="0" />
        <mxCell id="QyAJUUX20ja531K6BZlA-1" style="edgeStyle=orthogonalEdgeStyle;rounded=0;orthogonalLoop=1;jettySize=auto;html=1;exitX=0.5;exitY=1;exitDx=0;exitDy=0;entryX=0.5;entryY=0;entryDx=0;entryDy=0;strokeWidth=3;" edge="1" parent="1" source="QyAJUUX20ja531K6BZlA-2" target="QyAJUUX20ja531K6BZlA-4">
          <mxGeometry relative="1" as="geometry" />
        </mxCell>
        <mxCell id="QyAJUUX20ja531K6BZlA-2" value="&lt;font style=&quot;font-size: 17px;&quot;&gt;Start&lt;/font&gt;" style="ellipse;whiteSpace=wrap;html=1;" vertex="1" parent="1">
          <mxGeometry x="340" width="120" height="80" as="geometry" />
        </mxCell>
        <mxCell id="QyAJUUX20ja531K6BZlA-3" style="edgeStyle=orthogonalEdgeStyle;rounded=0;orthogonalLoop=1;jettySize=auto;html=1;exitX=0.5;exitY=1;exitDx=0;exitDy=0;entryX=0.5;entryY=0;entryDx=0;entryDy=0;fontSize=20;strokeWidth=3;" edge="1" parent="1" source="QyAJUUX20ja531K6BZlA-4" target="QyAJUUX20ja531K6BZlA-13">
          <mxGeometry relative="1" as="geometry">
            <mxPoint x="400" y="320" as="targetPoint" />
          </mxGeometry>
        </mxCell>
        <mxCell id="QyAJUUX20ja531K6BZlA-4" value="Register node" style="rounded=0;whiteSpace=wrap;html=1;fontSize=17;" vertex="1" parent="1">
          <mxGeometry x="290" y="160" width="220" height="90" as="geometry" />
        </mxCell>
        <mxCell id="QyAJUUX20ja531K6BZlA-9" style="edgeStyle=orthogonalEdgeStyle;rounded=0;orthogonalLoop=1;jettySize=auto;html=1;exitX=1;exitY=0.5;exitDx=0;exitDy=0;entryX=1;entryY=0.5;entryDx=0;entryDy=0;strokeWidth=4;" edge="1" parent="1" source="QyAJUUX20ja531K6BZlA-11" target="QyAJUUX20ja531K6BZlA-13">
          <mxGeometry relative="1" as="geometry">
            <mxPoint x="650" y="615" as="targetPoint" />
            <Array as="points">
              <mxPoint x="570" y="615" />
              <mxPoint x="570" y="375" />
            </Array>
          </mxGeometry>
        </mxCell>
        <mxCell id="QyAJUUX20ja531K6BZlA-10" style="edgeStyle=orthogonalEdgeStyle;rounded=0;orthogonalLoop=1;jettySize=auto;html=1;exitX=0.5;exitY=1;exitDx=0;exitDy=0;entryX=0;entryY=0.5;entryDx=0;entryDy=0;strokeWidth=3;" edge="1" parent="1" source="QyAJUUX20ja531K6BZlA-11" target="QyAJUUX20ja531K6BZlA-11">
          <mxGeometry relative="1" as="geometry">
            <mxPoint x="400" y="1030" as="targetPoint" />
            <Array as="points">
              <mxPoint x="400" y="740" />
              <mxPoint x="240" y="740" />
              <mxPoint x="240" y="615" />
            </Array>
          </mxGeometry>
        </mxCell>
        <mxCell id="QyAJUUX20ja531K6BZlA-11" value="&lt;font style=&quot;font-size: 15px;&quot;&gt;x minutes passed?&lt;/font&gt;" style="rhombus;whiteSpace=wrap;html=1;" vertex="1" parent="1">
          <mxGeometry x="295" y="510" width="210" height="210" as="geometry" />
        </mxCell>
        <mxCell id="QyAJUUX20ja531K6BZlA-12" style="edgeStyle=orthogonalEdgeStyle;rounded=0;orthogonalLoop=1;jettySize=auto;html=1;exitX=0.5;exitY=1;exitDx=0;exitDy=0;entryX=0.5;entryY=0;entryDx=0;entryDy=0;strokeWidth=3;" edge="1" parent="1" source="QyAJUUX20ja531K6BZlA-13" target="QyAJUUX20ja531K6BZlA-11">
          <mxGeometry relative="1" as="geometry" />
        </mxCell>
        <mxCell id="QyAJUUX20ja531K6BZlA-13" value="Read sensor and form packet..&lt;div&gt;Send LoRa packet.&lt;/div&gt;" style="rounded=0;whiteSpace=wrap;html=1;fontSize=17;" vertex="1" parent="1">
          <mxGeometry x="290" y="330" width="220" height="90" as="geometry" />
        </mxCell>
        <mxCell id="QyAJUUX20ja531K6BZlA-16" value="Yes" style="text;html=1;align=center;verticalAlign=middle;resizable=0;points=[];autosize=1;strokeColor=none;fillColor=none;fontSize=19;" vertex="1" parent="1">
          <mxGeometry x="525" y="563" width="50" height="40" as="geometry" />
        </mxCell>
        <mxCell id="QyAJUUX20ja531K6BZlA-18" value="No" style="text;html=1;align=center;verticalAlign=middle;resizable=0;points=[];autosize=1;strokeColor=none;fillColor=none;fontSize=18;" vertex="1" parent="1">
          <mxGeometry x="305" y="703" width="50" height="40" as="geometry" />
        </mxCell>
      </root>
    </mxGraphModel>
  </diagram>
</mxfile>
